<svg xmlns="http://www.w3.org/2000/svg" viewBox="0 0 297.2 222"><style>.st0{fill:#3beccd}.st1{fill:#231749}.st2{fill:#2f128d}.st3{fill:#f4f3f6}.st4{fill:#0c213f}.st5{fill:#fd5765}.st6{fill:#fff}</style><path class="st0" d="M297.2 222c0-38.1-30.8-69-68.9-69.1s-69 30.8-69.1 68.9l138 .2z"/><path class="st1" d="M35.7 109.8h3.9v38h-3.9z"/><path transform="rotate(-89.571 89.237 200.1) scale(1.00003)" class="st2" d="M67.5 184.9h43.6v30.4H67.5z"/><path class="st2" d="M104.5 211.4c-6.8-.1-12.4-5.7-12.3-12.5.1-6.9 5.7-12.4 12.5-12.3S117 192.2 117 199c-.1 6.9-5.7 12.4-12.5 12.4z"/><path class="st1" d="M37.7 128.6c-14.6 0-26.4 11.8-26.4 26.4h4.1v8.6c-8.8 1.9-15.4 9.7-15.4 19s6.6 17.1 15.4 19.1V222H60v-67.1h4c0-14.5-11.8-26.3-26.3-26.3zm-33.5 54c0-7 4.7-12.9 11.1-14.7v29.4c-6.4-1.8-11.1-7.7-11.1-14.7z"/><ellipse class="st1" cx="37.7" cy="106.5" rx="6.7" ry="6.7"/><path class="st3" d="M82.6 195.6c0 14.6-11.8 26.4-26.4 26.4s-26.4-11.8-26.4-26.4h52.8z"/><circle class="st1" cx="232.6" cy="50.1" r="19.5"/><path class="st4" d="M226.3 90.2c14.2 0 25.7-11.5 25.7-25.8h-25.7v25.8z"/><path class="st3" d="M205.3 141h12.3c14.4 0 26.1-11.7 26.1-26.1V69.2c0-14.4-11.7-26.1-26.1-26.1h-12.3c-14.4 0-26.1 11.7-26.1 26.1v45.7c-.1 14.4 11.6 26.1 26.1 26.1z"/><path class="st3" d="M227.7 172.5c8.9 0 16-7.2 16-16v-50.9c0-8.9-7.2-16-16-16-8.9 0-16 7.2-16 16v50.9c-.1 8.8 7.1 16 16 16z"/><path class="st3" d="M240.7 77.6c7.4 0 13.4 6 13.4 13.4s-6 13.4-13.4 13.4V77.6z"/><circle class="st1" cx="219.3" cy="81.9" r="3.7"/><circle class="st1" cx="192.3" cy="81.9" r="3.7"/><path class="st1" d="M243.7 118.7c0 17.8-14.5 32.3-32.3 32.3s-32.3-14.5-32.3-32.3h64.6z"/><path class="st5" d="M196 107.4h10.4V90.9z"/><path transform="rotate(-180 211.425 116.102)" class="st1" d="M179.1 112h64.6v8.2h-64.6z"/><path class="st1" d="M190.2 65.6H252V48.9l-61.8-12z"/><path class="st6" d="M211.1 120.2c0 4.5-3.7 8.2-8.2 8.2s-8.2-3.7-8.2-8.2h16.4z"/><path class="st2" d="M165.7 40c0 13.6 11 24.4 24.5 24.4V40h-24.5z"/><circle class="st1" cx="189.7" cy="40.5" r="25"/></svg>
